<?xml version="1.0" encoding="utf-8"?>
<!-- Generator: Adobe Illustrator 23.0.3, SVG Export Plug-In . SVG Version: 6.00 Build 0)  -->
<svg version="1.1" id="Layer_1" xmlns="http://www.w3.org/2000/svg" xmlns:xlink="http://www.w3.org/1999/xlink" x="0px" y="0px"
	 viewBox="0 0 53.3 17.4" style="enable-background:new 0 0 53.3 17.4;" xml:space="preserve">
<style type="text/css">
	.st0{fill:#656568;}
	.st1{fill:#7289DA;}
	.st2{fill:#E6EBF4;}
	.st3{fill:#26262B;}
	.st4{fill:none;stroke:#656568;stroke-width:5.1587;stroke-miterlimit:10;}
	.st5{fill:none;stroke:#656568;stroke-width:6.8755;stroke-miterlimit:10;}
	.st6{fill:none;stroke:#656568;stroke-width:5.3232;stroke-miterlimit:10;}
	.st7{fill:none;stroke:#656568;stroke-width:6.8088;stroke-miterlimit:10;}
	.st8{fill:none;stroke:#656568;stroke-width:5.7107;stroke-miterlimit:10;}
	.st9{fill:none;stroke:#656568;stroke-width:4.4653;stroke-linecap:round;stroke-miterlimit:10;}
	.st10{fill:none;stroke:#656568;stroke-width:6.2982;stroke-linecap:round;stroke-miterlimit:10;}
	.st11{enable-background:new    ;}
	.st12{fill:#5667A4;}
	.st13{fill:url(#SVGID_1_);}
	.st14{fill:#445283;}
	.st15{fill:#475587;}
	.st16{fill:#49588C;}
	.st17{fill:#4B5A90;}
	.st18{fill:#4E5D94;}
	.st19{fill:#506099;}
	.st20{fill:#52639D;}
	.st21{fill:#5465A1;}
	.st22{fill:#5768A6;}
	.st23{fill:#596BAA;}
	.st24{fill:#39456D;}
	.st25{fill:url(#SVGID_2_);}
	.st26{fill:url(#SVGID_3_);}
	.st27{fill:url(#SVGID_4_);}
	.st28{fill:url(#SVGID_5_);}
	.st29{fill:url(#SVGID_6_);}
	.st30{fill:#3B4771;}
	.st31{fill:url(#SVGID_7_);}
	.st32{fill:url(#SVGID_8_);}
	.st33{fill:url(#SVGID_9_);}
	.st34{fill:url(#SVGID_10_);}
	.st35{fill:url(#SVGID_11_);}
	.st36{fill:none;}
	.st37{fill:none;stroke:#656568;stroke-width:0.7406;stroke-miterlimit:10;}
	.st38{fill:none;stroke:#656568;stroke-width:0.5734;stroke-miterlimit:10;}
	.st39{fill:none;stroke:#656568;stroke-width:0.7334;stroke-miterlimit:10;}
	.st40{fill:none;stroke:#656568;stroke-width:0.6151;stroke-miterlimit:10;}
	.st41{fill:none;stroke:#656568;stroke-width:0.481;stroke-linecap:round;stroke-miterlimit:10;}
	.st42{fill:none;stroke:#656568;stroke-width:0.6784;stroke-linecap:round;stroke-miterlimit:10;}
</style>
<g>
	<g>
		<path class="st1" d="M5.7,1C5.8,1.2,6,1.4,6.2,1.5c0.2,0.2,0.3,0.9,0.3,1c0,0.3,0.1,0.5,0,0.7C6.6,3.5,6.6,3.7,6.6,4v0.7
			c0,0.3,0,0.5,0,0.8c0,0.4,0,0.7,0.1,1.1c0.1,0.3,0,0.6,0,0.9c0,0.2,0,0.3,0,0.5c0.1,0.5,0,1.2,0,1.7c0,0.4,0,0.8,0,1.1
			c0,0.2,0,0.4,0,0.7c0,0.3,0,0.6,0.1,0.9c0,0.1,0,0.3,0,0.4c0,0.4,0,0.9,0,1.4c0,0.5-0.1,1-0.2,1.5c-0.1,0.1-0.1,0.4-0.3,0.5
			c-0.2,0.2-0.4,0.4-0.7,0.6C5.3,17,5,17.1,4.7,17.2c-0.6,0.1-1.2,0.2-1.8,0.1c-0.8-0.1-1.5-0.4-2.1-0.9c-0.3-0.3-0.4-0.7-0.6-1.1
			l-0.1-3.4c0-0.1,0-0.2,0-0.3c0.1-0.4,0.1-0.8,0.1-1.2c0-0.2,0.1-0.4,0-0.6c0-0.2,0-0.5,0-0.7c0-0.2,0-0.4,0-0.7V7.8
			c0-1.3,0-2.6,0-3.9c0-0.2,0-0.4,0-0.6C0.1,3,0.1,2.8,0.2,2.5c0-0.1,0-0.3,0-0.4c0.2-0.2,0.2-0.3,0.3-0.5c0.3-0.2,0.5-0.5,0.8-0.8
			l0.8-0.4c0.2,0,0.3,0,0.4-0.1c0.7-0.2,1.3-0.1,2,0.1L5,0.6C5.2,0.8,5.4,0.9,5.7,1z M4.3,13.8c0-0.6-0.1-1.2,0.1-1.8
			c0-0.1,0-0.1,0-0.2c0-0.5,0.1-1-0.1-1.5c0,0,0-0.1,0-0.2c0.1-0.4,0-0.8,0-1.2C4.3,8.8,4.3,8.6,4.3,8.4c0-0.2,0-0.5-0.1-0.7
			c-0.1-0.3-0.1-0.5,0-0.8C4.3,6.6,4.3,6.3,4.3,6c0-0.2,0.1-0.4,0-0.7c-0.1-0.2,0-0.5,0-0.8c0-0.2,0-0.4-0.1-0.6c0-0.1,0-0.2,0-0.3
			c0.1-0.3,0-0.6,0-0.9c0,0,0-0.1,0-0.1C4.1,2.6,4,2.5,3.9,2.4c-0.3,0-0.6-0.1-0.9,0C2.8,2.5,2.6,2.6,2.6,2.7
			C2.5,2.9,2.5,3.1,2.5,3.2c0.1,0.4,0,0.9,0.1,1.3c0,0.1,0,0.3,0,0.4c0,0.1,0,0.2,0,0.3c0,1.1,0,2.2,0,3.3c0,0.2,0,0.5,0,0.7
			c0,0.2,0,0.4,0,0.7c0,0.2,0.1,0.5,0,0.7c0,0.1,0,0.2,0,0.2c0.1,0.2,0.1,0.4,0.1,0.6v3c0,0.2-0.1,0.4,0,0.5c0.3,0.2,0.7,0.3,1,0.3
			c0.1-0.1,0.3,0,0.5-0.1l0.2-0.2C4.3,14.5,4.3,14.2,4.3,13.8z"/>
		<path class="st1" d="M8.1,0.5c0.3-0.2,0.5-0.1,0.8-0.1c0.1,0,0.3,0,0.4,0c0.3,0,0.6,0,1,0c0.3,0,0.6,0,0.8,0c0.3,0,0.6,0,0.9,0
			c0.1,0,0.2,0,0.3,0c0.1,0,0.2,0,0.2,0c0.1,0.1,0.3,0.1,0.4,0.1c0.3,0.1,0.8,0.4,1,0.6c0,0,0.1,0,0.1,0.1c0.1,0.2,0.3,0.3,0.3,0.5
			c0,0.1,0,0.2,0.1,0.3c0.1,0.2,0.1,0.3,0.1,0.5c0,0.1,0.2,0.2,0.1,0.3c0.1,0.3,0,0.7,0.1,1c0.1,0.3,0,0.7,0.1,1
			c0,0.1-0.1,0.3,0,0.4c0,0.2,0,0.4,0.1,0.6c0.1,0.2,0,0.5,0,0.7c0,0.4,0,0.7,0,1.1c0,0.4-0.1,0.9-0.1,1.4c0,0.2,0,0.5,0,0.7
			c0,0.3,0,0.7,0,1c0,0.1,0,0.2-0.1,0.2c0.1,0.6,0,1.2,0,1.8c0,0.1,0.1,0.1,0.1,0.2c0,0.1-0.1,0.2,0,0.3c0,0,0,0.1,0,0.1
			c-0.1,0.3,0,0.7-0.1,1c0,0.1,0,0.2,0,0.3c0,0.3-0.1,0.6-0.2,0.8c0,0.1-0.2,0.3-0.1,0.4c-0.2,0.2-0.3,0.4-0.6,0.5
			c-0.2,0.1-0.4,0.2-0.6,0.3c-0.3,0.1-0.5,0.2-0.7,0.3c-0.2-0.1-1.3-0.1-1.7,0c-0.5,0-1.1,0-1.7,0c-0.2,0.1-0.4,0-0.6,0
			c-0.2-0.1-0.2-0.3-0.2-0.4v-1.6c0-0.3,0-0.6,0-0.8c0-0.4,0-0.8,0-1.2c0-0.4,0-0.8,0-1.2c0-0.4,0-0.9,0-1.3c0-0.4-0.1-1-0.1-1.4
			c0-0.8,0.2-1,0-2c0-0.8,0-1.7,0.1-2.1c0-0.3-0.1,0-0.1-1.6c0-0.3,0-0.6-0.1-0.9c0-0.1,0.1-0.2,0-0.3c0-0.3,0-0.7,0-1
			c0-0.1,0-0.1,0.1-0.2C8,0.8,8.2,0.6,8.1,0.5z M12.3,11.8c0-0.6,0-1.1,0-1.7c0-0.7,0.1-1.5,0.1-2.2c0-0.4,0-0.9,0-1.3
			c0,0,0-0.1,0-0.5c0.1-0.2,0-0.4,0-0.6c0-0.3,0-0.6,0.1-0.8l-0.1-0.2c-0.1-0.2,0-0.4-0.1-0.6c-0.1-0.3-0.2-0.7-0.5-0.8l-0.5-0.2
			c-0.2,0.2-0.4-0.1-0.7,0c0,0,0,0.1,0,0.1c0,0.3,0,0.6,0,0.9c0,0.2,0,0.4,0,0.7c0,0.3,0,0.6,0.1,0.9c0,0.1,0,0.3,0,0.4
			c0,0.1,0,0.2,0,0.2c0,0.3,0,0.5,0,0.8v0.7c0,0.4,0,0.8-0.1,1.2c0,0.4,0.1,0.8,0,1.2c-0.1,0.4,0,0.8-0.1,1.2c-0.1,0.4,0,0.8,0,1.2
			c0,0.5,0,1,0,1.5c0,0.1,0,0.2,0,0.3c0,0.2-0.1,0.4,0,0.7c0.2,0,0.3,0,0.5,0c0,0,0.1-0.1,0.1-0.1c0.5,0,0.8-0.2,0.9-0.7
			c0-0.2,0-0.3,0.2-0.4C12.2,13,12.3,12.4,12.3,11.8z"/>
		<path class="st1" d="M15.7,0.4c0.7,0.1,1.4,0.1,2.1,0.1C18,0.6,18,0.8,18,0.9c0.1,0.5,0.2,0.9,0.3,1.4c0.1,0.3,0.2,0.7,0.2,1.1
			c0,0.2,0.1,0.5,0.1,0.7c0.1,0.5,0.3,0.9,0.3,1.4c0,0.3,0.1,0.6,0.2,0.9c0.1-0.1,0.1-0.3,0.1-0.4c0-0.3,0.1-0.5,0.1-0.7
			c0.1-0.5,0.2-1,0.3-1.5c0.1-0.6,0.2-1.2,0.3-1.8c0.1-0.5,0.2-1,0.3-1.5l0.1-0.1c0.3-0.1,0.6,0,1,0c0.3,0,0.7,0,1,0
			c0.1,0,0.3,0,0.4,0.1c0,0.1,0,0.1,0,0.2c-0.2,0.4-0.3,0.8-0.3,1.2c0,0.2-0.1,0.4-0.2,0.6c-0.1,0.6-0.4,1.1-0.5,1.8
			c0,0.3-0.1,0.6-0.2,0.9c-0.1,0.4-0.2,0.8-0.3,1.1c-0.1,0.2-0.1,0.5-0.2,0.7c-0.1,0.5-0.3,1-0.3,1.6c0,0.3-0.2,0.5-0.2,0.8
			c-0.1,0.5-0.3,1-0.3,1.5c0,0.4-0.1,0.9,0,1.3c0,0.4,0.1,0.9,0,1.3c0,0.2,0,0.4,0,0.5c0,0.3-0.1,0.5,0,0.8c0.1,0.3,0,0.7,0,1
			c0,0.4,0.1,0.7,0,1.1c0,0-0.1,0.1-0.1,0.1c-0.3,0-0.6,0-0.9,0.1c-0.1,0-0.2-0.1-0.3-0.1c-0.3,0-0.7,0-1,0.1h-0.1
			c0-0.1-0.2-0.2-0.2-0.3c0.1-0.1,0.1-0.3,0.1-0.4c0-0.6,0-1.1,0-1.7c0-0.4,0-0.9,0-1.3c0-0.1,0-0.1,0-0.2c0.1-0.3,0-0.6,0-0.8
			c0-0.2,0-0.3,0-0.5c0-0.2,0-0.4,0-0.6c0-0.3,0-0.6-0.1-0.9c0-0.5-0.2-0.9-0.2-1.4c-0.1-0.4-0.2-0.8-0.3-1.2l-0.3-1
			c-0.2-0.6-0.3-1.3-0.4-1.9c-0.1-0.5-0.2-0.9-0.3-1.4C16.1,3.2,16,2.9,16,2.6c-0.1-0.4-0.2-0.8-0.2-1.2c0-0.2-0.1-0.3-0.2-0.5
			c0-0.1-0.1-0.1,0-0.3L15.7,0.4z"/>
		<path class="st1" d="M29.7,15.6c-0.2,0.3-0.4,0.7-0.7,1c-0.2,0.1-0.3,0.2-0.5,0.3C28.4,17,28.3,17,28.1,17l-0.2,0.2
			c-0.1,0-0.1,0-0.2,0c-0.2,0.1-0.4,0.1-0.5,0.1c-0.3,0-0.6,0-0.9,0.1c-0.2,0-0.6-0.1-0.8-0.2c-0.1,0-0.2-0.1-0.3-0.1
			c-0.3-0.2-0.7-0.3-1-0.6c-0.2-0.2-0.3-0.4-0.5-0.6c0-0.1,0-0.2,0-0.3c0,0-0.1,0-0.2-0.1c0-1.2-0.1-2.3,0-3.6
			c0.1-0.2,0.3-0.2,0.5-0.2c0.1,0,0.3,0,0.4,0c0.3,0,0.6,0.1,0.9,0c0.2,0,0.2,0,0.3,0.1c0,0.2,0,0.3,0,0.4c0,0.1,0,0.2,0,0.3
			c0,0.2,0,0.2,0,0.3c0,0.3,0,0.5,0,0.8c0,0.2,0,0.3,0,0.4c0,0.1,0,0.1,0,0.2c0,0.3,0.1,0.7,0.5,0.8c0.1,0,0.1,0.1,0.2,0.1h0.4
			c0.3,0,0.5-0.1,0.6-0.3c0,0,0-0.1,0-0.1c0.2-0.2,0.1-0.4,0.1-0.7c0-0.3,0-1,0-1.3c0-0.1,0-0.2-0.1-0.3c-0.4-0.7-0.7-1.4-1.1-2
			C26,10,25.9,9.5,25.6,9c-0.3-0.5-0.4-1-0.8-1.4c-0.1-0.1-0.1-0.3-0.2-0.4c-0.1-0.2-0.3-0.4-0.3-0.6C24.2,6.3,24,6,23.9,5.7
			c0-0.1-0.4-0.8-0.4-1.1c-0.1-0.3,0-0.6,0-1c0-0.2,0.1-0.4,0-0.5c0-0.1,0-0.3,0-0.4c0.1-0.2,0.1-0.4,0.2-0.6
			c0.1-0.3,0.2-0.6,0.5-0.8c0.2-0.2,0.3-0.4,0.5-0.5s0.5-0.3,0.8-0.3c0.2,0,0.4-0.1,0.6-0.1c0.3-0.1,0.6-0.1,0.9,0
			c0.1,0,0.2,0,0.3,0c0.3,0.1,0.7,0.1,1.1,0.2c0.3,0.1,0.6,0.3,0.9,0.5c0.2,0.1,0.3,0.3,0.4,0.4c0.1,0.3,0.3,0.5,0.4,0.8
			c0,0.1,0.1,0.2,0,0.3C30,2.7,30,3,29.9,3.1c-0.1,0.8-0.1,1.6,0,2.3c-0.1,0.1-0.1,0.1-0.2,0.1c0,0-0.1,0-0.1,0
			c-0.4,0.1-0.9,0-1.3,0c-0.2,0-0.4,0-0.7,0.1c-0.2-0.2-0.3-0.4-0.2-0.6c0-0.1,0-0.2,0-0.3c0-0.4,0-0.8,0-1.2c0-0.2,0-0.4,0-0.6
			c0-0.1-0.2-0.2-0.1-0.4c-0.3,0-0.5-0.2-0.8-0.1c-0.1,0.1-0.4,0-0.6,0.1c0,0.1-0.1,0.1-0.2,0.3c-0.1,0.3-0.1,0.8,0,1.1
			c0,0.2,0,0.4,0,0.6c0,0.1,0,0.2,0.1,0.3C26,5,26,5.1,26.1,5.3c0.1,0.3,0.3,0.4,0.4,0.7c0,0,0.1,0.1,0.1,0.1c0.1,0.3,0.3,0.7,0.5,1
			c0.1,0.2,0.3,0.4,0.4,0.6c0.2,0.3,0.2,0.5,0.4,0.8c0.3,0.4,0.5,0.7,0.8,1.2c0.2,0.3,0.4,0.5,0.5,0.8c0.2,0.4,0.6,1.2,0.7,1.7
			c0,0.2,0.1,0.3,0.1,0.5c0,0.3,0,0.7,0,0.9c0,0.3-0.1,0.6-0.1,0.9c0,0.3-0.1,0.6-0.1,0.9C29.8,15.5,29.7,15.5,29.7,15.6z"/>
		<path class="st1" d="M37.4,15.6c-0.2,0.3-0.4,0.7-0.7,1c-0.2,0.1-0.3,0.2-0.5,0.3C36.1,17,36,17,35.8,17l-0.2,0.2
			c-0.1,0-0.1,0-0.2,0c-0.2,0.1-0.3,0.1-0.5,0.1c-0.3,0-0.6,0-0.9,0.1c-0.2,0-0.6-0.1-0.8-0.2c-0.1,0-0.2-0.1-0.3-0.1
			c-0.3-0.2-0.7-0.3-1-0.6c-0.2-0.2-0.3-0.4-0.5-0.6c0-0.1,0-0.2,0-0.3c0,0-0.1,0-0.2-0.1c0-1.2-0.1-2.3,0-3.6
			c0.1-0.2,0.3-0.2,0.5-0.2c0.1,0,0.3,0,0.4,0c0.3,0,0.6,0.1,0.9,0c0.2,0,0.2,0,0.3,0.1c0,0.2,0,0.3,0,0.4c0,0.1,0,0.2,0,0.3
			c0,0.2,0,0.2,0,0.3c0,0.3,0,0.5,0,0.8c0,0.2,0,0.3,0,0.4c0,0.1,0,0.1,0,0.2c0,0.3,0.1,0.7,0.5,0.8c0.1,0,0.1,0.1,0.2,0.1h0.4
			c0.3,0,0.5-0.1,0.6-0.3c0,0,0-0.1,0-0.1c0.2-0.2,0.1-0.4,0.1-0.7c0-0.3,0-1,0-1.3c0-0.1,0-0.2-0.1-0.3c-0.4-0.7-0.7-1.4-1.1-2
			C33.8,10,33.6,9.5,33.4,9c-0.3-0.5-0.4-1-0.8-1.4c-0.1-0.1-0.1-0.3-0.2-0.4C32.2,7,32.1,6.9,32,6.6C32,6.3,31.7,6,31.6,5.7
			c0-0.1-0.4-0.8-0.4-1.1c-0.1-0.3,0-0.6,0-1c0-0.2,0.1-0.4,0-0.5c0-0.1,0-0.3,0-0.4c0.1-0.2,0.1-0.4,0.2-0.6
			c0.1-0.3,0.2-0.6,0.5-0.8c0.2-0.2,0.3-0.4,0.5-0.5s0.5-0.3,0.8-0.3c0.2,0,0.4-0.1,0.6-0.1c0.3-0.1,0.6-0.1,0.9,0
			c0.1,0,0.2,0,0.3,0c0.3,0.1,0.7,0.1,1.1,0.2c0.3,0.1,0.6,0.3,0.9,0.5c0.2,0.1,0.3,0.3,0.4,0.4c0.1,0.3,0.3,0.5,0.4,0.8
			c0,0.1,0.1,0.2,0,0.3c0.1,0.2,0.1,0.5,0,0.6c-0.1,0.8-0.1,1.6,0,2.3c-0.1,0.1-0.1,0.1-0.2,0.1c0,0-0.1,0-0.1,0
			c-0.4,0.1-0.9,0-1.3,0c-0.2,0-0.4,0-0.7,0.1c-0.2-0.2-0.3-0.4-0.2-0.6c0-0.1,0-0.2,0-0.3c0-0.4,0-0.8,0-1.2c0-0.2,0-0.4,0-0.6
			c0-0.1-0.2-0.2-0.1-0.4c-0.3,0-0.5-0.2-0.8-0.1c-0.1,0.1-0.4,0-0.6,0.1c0,0.1-0.1,0.1-0.2,0.3c-0.1,0.3-0.1,0.8,0,1.1
			c0,0.2,0,0.4,0,0.6c0,0.1,0,0.2,0.1,0.3c0.1,0.2,0.1,0.3,0.1,0.4c0.1,0.3,0.3,0.4,0.4,0.7c0,0,0.1,0.1,0.1,0.1
			c0.1,0.3,0.3,0.7,0.5,1c0.1,0.2,0.3,0.4,0.4,0.6c0.2,0.3,0.2,0.5,0.4,0.8c0.3,0.4,0.5,0.7,0.8,1.2c0.2,0.3,0.3,0.5,0.5,0.8
			c0.2,0.4,0.6,1.2,0.7,1.7c0,0.2,0.1,0.3,0.1,0.5c0,0.3,0,0.7,0,0.9c0,0.3-0.1,0.6-0.1,0.9c0,0.3-0.1,0.6-0.1,0.9
			C37.5,15.5,37.5,15.5,37.4,15.6z"/>
		<path class="st1" d="M39.4,0.5c0.3,0,0.5,0.1,0.8,0c0.5-0.1,1.1,0,1.6-0.1c0.3,0,0.6,0,0.9,0c0.1,0,0.2,0,0.3,0c0.1,0,0.1,0,0.2,0
			c0.3-0.1,0.5,0,0.7,0C44,0.6,44,0.6,44,0.7c-0.1,0.2-0.1,0.3,0,0.5c0.1,0.3,0,0.6,0.1,0.8c-0.1,0.2,0,0.4-0.1,0.7
			c-0.2,0.1-0.4,0.1-0.6,0.1c-0.3,0-0.5,0.1-0.8,0c-0.4,0-0.7,0-1.1,0c0,0-0.1,0-0.2,0v0.4c0,0.2,0,0.4,0,0.6c0,0,0,0.1,0,0.1
			c0,0.2,0.1,0.4-0.1,0.5c0.1,0.2,0.1,0.4,0.1,0.6c0.1,0.2,0.1,0.3,0.1,0.5v1.8c0.3,0,0.5,0,0.8,0c0.2,0,0.5,0.1,0.8,0
			c0.1,0.1,0.3,0,0.4,0c0,0.2,0,0.5,0,0.6c0,0.3,0.1,0.5,0,0.8c0,0.1,0,0.2,0,0.3c0,0.1,0,0.1,0,0.1c0,0.1,0,0,0,0.1
			c0,0.2-0.1,0.3-0.2,0.5C42.8,9.8,42.4,10,42,10c-0.2,0-0.4,0-0.6,0c-0.1,0.5,0,1,0,1.5c0,0.1-0.1,0.1-0.2,0.2
			c0,0.1,0.1,0.2,0.1,0.3c0,0.2,0,0.3,0,0.5c0,0.1-0.1,0.3,0,0.5c0.1,0.2,0,0.3,0,0.4c0,0.4,0.1,0.8,0.1,1.3c0.4,0,0.9,0,1.3,0
			c0.4,0,0.8,0,1.2,0c0,0,0.2,0,0.2,0.2c0.1,0.3,0,0.7,0,1.1c0,0.3,0,0.5,0.1,0.7c0.1,0.2,0.1,0.2-0.1,0.4c-0.7,0.1-1.3,0-2,0
			c-0.8,0-1.7,0-2.5,0.1c-0.3,0-0.5,0.1-0.7-0.2c-0.1-0.3,0-0.6,0-0.9c0-0.3,0-0.6,0-0.9c0-0.5,0-0.9,0-1.4c0-0.4,0-0.8,0-1.1
			c0.1-0.5,0-1.1,0-1.7c0-0.5,0-1,0-1.5c0-0.3,0-0.6,0-0.8c0-0.5,0-1,0-1.5c0-0.5,0-1,0-1.5c0-0.3,0-0.6,0-0.9c0.1-0.3,0-0.6,0-0.9
			c0-0.3,0-0.6,0-0.9c0-0.2,0-0.4-0.1-0.6c0-0.2,0-0.3,0-0.5c0-0.3-0.1-0.5,0-0.8c0-0.1,0-0.1-0.1-0.2C39,0.6,39.2,0.5,39.4,0.5z"/>
		<path class="st1" d="M45.2,0.4c0.7,0.1,1.4,0.1,2.1,0.1c0.1,0.1,0.2,0.3,0.2,0.4c0.1,0.5,0.2,0.9,0.3,1.4C47.9,2.7,48,3,48,3.4
			c0,0.2,0.1,0.5,0.1,0.7c0.1,0.5,0.3,0.9,0.3,1.4c0,0.3,0.1,0.6,0.2,0.9c0.1-0.1,0.1-0.3,0.1-0.4c0-0.3,0.1-0.5,0.1-0.7
			c0.1-0.5,0.2-1,0.3-1.5c0.1-0.6,0.2-1.2,0.3-1.8c0.1-0.5,0.2-1,0.3-1.5l0.1-0.1c0.3-0.1,0.6,0,1,0c0.3,0,0.7,0,1,0
			c0.1,0,0.3,0,0.4,0.1c0,0.1,0,0.1,0,0.2C52,1.1,51.9,1.5,51.9,2c0,0.2-0.1,0.4-0.2,0.6c-0.1,0.6-0.4,1.1-0.5,1.8
			c0,0.3-0.1,0.6-0.2,0.9c-0.1,0.4-0.2,0.8-0.3,1.1c-0.1,0.2-0.1,0.5-0.2,0.7c-0.1,0.5-0.3,1-0.3,1.6c0,0.3-0.2,0.5-0.2,0.8
			c-0.1,0.5-0.3,1-0.3,1.5c0,0.4-0.1,0.9,0,1.3c0,0.4,0.1,0.9,0,1.3c0,0.2,0,0.4,0,0.5c0,0.3-0.1,0.5,0,0.8c0.1,0.3,0,0.7,0,1
			c0,0.4,0.1,0.7,0,1.1c0,0-0.1,0.1-0.1,0.1c-0.3,0-0.6,0-0.9,0.1c-0.1,0-0.2-0.1-0.3-0.1c-0.3,0-0.7,0-1,0.1h-0.1
			c0-0.1-0.2-0.2-0.2-0.3c0.1-0.1,0.1-0.3,0.1-0.4c0-0.6,0-1.1,0-1.7c0-0.4,0-0.9,0-1.3c0-0.1,0-0.1,0-0.2c0.1-0.3,0-0.6,0-0.8
			c0-0.2,0-0.3,0-0.5c0-0.2,0-0.4,0-0.6c0-0.3,0-0.6-0.1-0.9c0-0.5-0.2-0.9-0.2-1.4c-0.1-0.4-0.2-0.8-0.3-1.2l-0.3-1
			c-0.2-0.6-0.3-1.3-0.4-1.9c-0.1-0.5-0.2-0.9-0.3-1.4c-0.1-0.3-0.1-0.6-0.2-0.9c-0.1-0.4-0.2-0.8-0.2-1.2c0-0.2-0.1-0.3-0.2-0.5
			c0-0.1-0.1-0.1,0-0.3L45.2,0.4z"/>
	</g>
</g>
</svg>
